<?xml version="1.0" standalone="no"?>
<!DOCTYPE svg PUBLIC "-//W3C//DTD SVG 20010904//EN" "http://www.w3.org/TR/2001/REC-SVG-20010904/DTD/svg10.dtd">
<!-- Created using Krita: https://krita.org -->
<svg xmlns="http://www.w3.org/2000/svg" 
    xmlns:xlink="http://www.w3.org/1999/xlink"
    xmlns:krita="http://krita.org/namespaces/svg/krita"
    xmlns:sodipodi="http://sodipodi.sourceforge.net/DTD/sodipodi-0.dtd"
    width="144pt"
    height="144pt"
    viewBox="0 0 144 144">
<defs/>
<rect id="shape0" transform="matrix(1.4308681525093 0 0 1.4308681525093 50.1077200605775 49.1633442620714)" fill="#ffffff" fill-rule="evenodd" stroke="#989898" stroke-width="1.4304" stroke-linecap="square" stroke-linejoin="bevel" width="62.9999960947209" height="53.28"/><rect id="shape1" transform="matrix(1.4308681525093 0 0 1.4308681525093 3.74759191927609 18.6000005483528)" fill="#c13636" fill-rule="evenodd" stroke="#8c2b2b" stroke-width="1.4304" stroke-linecap="square" stroke-linejoin="bevel" width="32.16" height="74.64"/><rect id="shape2" transform="matrix(1.21725806055887 0 0 0.748113296501586 56.6324788360199 60.7883973787917)" fill="#81d0e2" fill-rule="evenodd" stroke="#989898" stroke-width="0.48" stroke-linecap="square" stroke-linejoin="bevel" width="29.28" height="13.68"/><rect id="shape01" transform="matrix(1.21725806055887 0 0 0.748113296501586 98.0283062806445 60.8661288655964)" fill="#81d0e2" fill-rule="evenodd" stroke="#989898" stroke-width="0.48" stroke-linecap="square" stroke-linejoin="bevel" width="29.28" height="13.68"/><rect id="shape02" transform="matrix(1.21725806055887 0 0 0.748113296501586 57.1340896717921 73.3374696116123)" fill="#81d0e2" fill-rule="evenodd" stroke="#989898" stroke-width="0.48" stroke-linecap="square" stroke-linejoin="bevel" width="29.28" height="13.68"/><rect id="shape011" transform="matrix(1.21725806055887 0 0 0.748113296501586 98.5299171164166 73.415201098417)" fill="#81d0e2" fill-rule="evenodd" stroke="#989898" stroke-width="0.48" stroke-linecap="square" stroke-linejoin="bevel" width="29.28" height="13.68"/><rect id="shape03" transform="matrix(1.21725806055887 0 0 0.748113296501586 57.6357005075644 105.902618911998)" fill="#81d0e2" fill-rule="evenodd" stroke="#989898" stroke-width="0.48" stroke-linecap="square" stroke-linejoin="bevel" width="29.28" height="13.68"/><rect id="shape021" transform="matrix(1.21725806055887 0 0 0.748113296501586 106.598388765258 103.336011647014)" fill="#81d0e2" fill-rule="evenodd" stroke="#989898" stroke-width="0.48" stroke-linecap="square" stroke-linejoin="bevel" width="14.3174023403369" height="28.2878763882522"/><ellipse id="shape3" transform="matrix(1.4308681525093 0 0 1.4308681525093 11.7747622740425 30.1900325913539)" rx="10.56" ry="10.56" cx="10.56" cy="10.56" fill="#ffffff" fill-rule="evenodd" stroke="#001115" stroke-width="0.48" stroke-linecap="square" stroke-linejoin="bevel"/><path id="shape4" transform="matrix(1.4308681525093 0 0 1.4308681525093 21.3258071683753 45.5146294134911)" fill="#ffffff" fill-rule="evenodd" stroke="#001115" stroke-width="0.48" stroke-linecap="square" stroke-linejoin="bevel" d="M2.25 0.045L6.165 0L7.8525 9.6075C5.93675 10.093 3.60609 10.775 0 9.585Z" sodipodi:nodetypes="ccccc"/><path id="shape5" transform="matrix(-0.393080422574302 -1.53049565356456 1.37581664885051 -0.437273294195072 26.1580977288655 43.1425865568513)" fill="#ffffff" fill-rule="evenodd" stroke="#001115" stroke-width="0.48" stroke-linecap="square" stroke-linejoin="bevel" d="M1.46495 0L4.48946 1.83995C4.48946 3.75995 5.60619 4.9382 5.60619 6.8582C4.2512 6.8582 1.355 5.26345 0 5.26345Z" sodipodi:nodetypes="ccccc"/><path id="shape04" transform="matrix(0.393080422574303 -1.53049565356456 -1.37581664885051 -0.437273294195073 27.688010257669 43.0869689859282)" fill="#ffffff" fill-rule="evenodd" stroke="#001115" stroke-width="0.48" stroke-linecap="square" stroke-linejoin="bevel" d="M1.46495 0L4.48946 1.83995C4.48946 3.75995 5.60619 4.9382 5.60619 6.8582C4.2512 6.8582 1.355 5.26345 0 5.26345Z" sodipodi:nodetypes="ccccc"/><path id="shape05" transform="matrix(-1.4308681525093 0 0 1.4308681525093 23.0379512368305 41.7049218861738)" fill="none" stroke="#001115" stroke-width="0.48" stroke-linecap="square" stroke-linejoin="bevel" d="M1.6575 0L4.785 1.6725L1.2075 2.43L2.28 4.36875L0 3.8325C0.265258 3.21916 0.905517 2.74083 1.17077 2.1275C1.45802 1.46333 1.37026 0.664165 1.6575 0Z" sodipodi:nodetypes="ccccccc"/><circle id="shape6" transform="matrix(1.4308681525093 0 0 1.4308681525093 20.4887494162126 35.5557882596371)" r="4.56" cx="4.56" cy="4.56" fill="#ffffff" fill-rule="evenodd" stroke="#001115" stroke-width="0.48" stroke-linecap="square" stroke-linejoin="bevel"/><path id="shape7" transform="matrix(1.4308681525093 0 0 1.4308681525093 31.3114770536101 41.9088416592552)" fill="none" stroke="#001115" stroke-width="0.48" stroke-linecap="square" stroke-linejoin="bevel" d="M1.6575 0L4.785 1.6725L1.2075 2.43L2.28 4.36875L0 3.8325C0.265258 3.21916 0.905517 2.74083 1.17077 2.1275C1.45802 1.46333 1.37026 0.664165 1.6575 0Z" sodipodi:nodetypes="ccccccc"/>
</svg>
