<?xml version="1.0" standalone="no"?>
<!DOCTYPE svg PUBLIC "-//W3C//DTD SVG 20010904//EN" "http://www.w3.org/TR/2001/REC-SVG-20010904/DTD/svg10.dtd">
<!-- Created using Krita: https://krita.org -->
<svg xmlns="http://www.w3.org/2000/svg" 
    xmlns:xlink="http://www.w3.org/1999/xlink"
    xmlns:krita="http://krita.org/namespaces/svg/krita"
    xmlns:sodipodi="http://sodipodi.sourceforge.net/DTD/sodipodi-0.dtd"
    width="144pt"
    height="144pt"
    viewBox="0 0 144 144">
<defs/>
<path id="shape1" transform="matrix(4.14996999746354 0 0 4.14996999746354 7.74000129479095 7.09093223691549)" fill="#c13636" fill-rule="evenodd" stroke="#8c2b2b" stroke-width="1.4304" stroke-linecap="square" stroke-linejoin="bevel" d="M3.40787 4.44089e-16L27.561 0C29.4431 1.15246e-16 30.9689 1.52575 30.9689 3.40787L29.5164 27.8738C29.5164 29.756 27.9906 31.2817 26.1085 31.2817L4.98143 31.2817C3.09931 31.2817 1.57356 29.756 1.57356 27.8738L0 3.40787C2.30492e-16 1.52575 1.52575 3.28843e-16 3.40787 4.44089e-16Z" sodipodi:nodetypes="ccccccccc"/><path id="shape0" transform="matrix(2.90031614036959 0 0 2.90031614036959 20.9823403704425 10.2232815176347)" fill="#ffffff" fill-rule="evenodd" stroke-opacity="0" stroke="#000000" stroke-width="0" stroke-linecap="square" stroke-linejoin="bevel" d="M0 0L2.16 0L2.16 42.6119C1.77293 42.477 1.40138 42.4896 1.01432 42.3547C0.681382 42.2388 0.332933 41.8435 0 41.7275Z" sodipodi:nodetypes="cccccc"/><rect id="shape01" transform="matrix(2.90031614036959 0 0 2.90031614036959 37.0964957231848 10.1884786199473)" fill="#ffffff" fill-rule="evenodd" stroke-opacity="0" stroke="#000000" stroke-width="0" stroke-linecap="square" stroke-linejoin="bevel" width="2.16" height="42.48"/><rect id="shape02" transform="matrix(2.90031614036959 0 0 2.90031614036959 52.8034466784618 9.84392099811104)" fill="#ffffff" fill-rule="evenodd" stroke-opacity="0" stroke="#000000" stroke-width="0" stroke-linecap="square" stroke-linejoin="bevel" width="2.16" height="42.48"/><rect id="shape011" transform="matrix(2.90031614036959 0 0 2.90031614036959 67.729571134109 9.9831370562259)" fill="#ffffff" fill-rule="evenodd" stroke-opacity="0" stroke="#000000" stroke-width="0" stroke-linecap="square" stroke-linejoin="bevel" width="2.16" height="42.48"/><rect id="shape03" transform="matrix(2.90031614036959 0 0 2.90031614036959 84.9318704583398 10.0175928184096)" fill="#ffffff" fill-rule="evenodd" stroke-opacity="0" stroke="#000000" stroke-width="0" stroke-linecap="square" stroke-linejoin="bevel" width="2.16" height="42.48"/><rect id="shape012" transform="matrix(2.90031614036959 0 0 2.90031614036959 100.638821413616 10.2385968029317)" fill="#ffffff" fill-rule="evenodd" stroke-opacity="0" stroke="#000000" stroke-width="0" stroke-linecap="square" stroke-linejoin="bevel" width="2.16" height="42.48"/><path id="shape0111" transform="matrix(2.90031614036959 0 0 2.90031614036959 116.79648150531 10.073279688392)" fill="#ffffff" fill-rule="evenodd" stroke-opacity="0" stroke="#000000" stroke-width="0" stroke-linecap="square" stroke-linejoin="bevel" d="M0 0L2.16 0L2.16 41.9292C1.79541 42.0575 1.57822 42.3255 1.21363 42.4538C0.858218 42.5789 0.35541 42.5644 0 42.6895Z" sodipodi:nodetypes="cccccc"/><g id="group0" transform="matrix(6.63413087490426 0 0 6.63413087490426 31.6413007176587 23.6227265087954)" fill="none">
  <circle id="shape3" transform="matrix(0.516570623202604 0 0 0.516570623202604 0 0)" r="10.56" cx="10.56" cy="10.56" fill="#ffffff" fill-rule="evenodd" stroke="#001115" stroke-width="0.48" stroke-linecap="square" stroke-linejoin="bevel"/>
  <path id="shape4" transform="matrix(0.516570623202604 0 0 0.516570623202604 3.44810890133325 5.53247098054241)" fill="#ffffff" fill-rule="evenodd" stroke="#001115" stroke-width="0.48" stroke-linecap="square" stroke-linejoin="bevel" d="M2.25 0.045L6.165 0L7.8525 9.6075C5.93675 10.093 3.60609 10.775 0 9.585Z" sodipodi:nodetypes="ccccc"/>
  <path id="shape5" transform="matrix(-0.141909510322007 -0.55253804634916 0.496695983108483 -0.157863977681015 5.19265772083897 4.67611838469431)" fill="#ffffff" fill-rule="evenodd" stroke="#001115" stroke-width="0.48" stroke-linecap="square" stroke-linejoin="bevel" d="M1.46495 0L4.48946 1.83995C4.48946 3.75995 5.60619 4.9382 5.60619 6.8582C4.2512 6.8582 1.355 5.26345 0 5.26345Z" sodipodi:nodetypes="ccccc"/>
  <path id="shape04" transform="matrix(0.141909510322008 -0.55253804634916 -0.496695983108483 -0.157863977681016 5.7449852480563 4.65603938354918)" fill="#ffffff" fill-rule="evenodd" stroke="#001115" stroke-width="0.48" stroke-linecap="square" stroke-linejoin="bevel" d="M1.46495 0L4.48946 1.83995C4.48946 3.75995 5.60619 4.9382 5.60619 6.8582C4.2512 6.8582 1.355 5.26345 0 5.26345Z" sodipodi:nodetypes="ccccc"/>
  <path id="shape05" transform="matrix(-0.516570623202604 0 0 0.516570623202604 4.0662254810499 4.15709408913931)" fill="none" stroke="#001115" stroke-width="0.48" stroke-linecap="square" stroke-linejoin="bevel" d="M1.6575 0L4.785 1.6725L1.2075 2.43L2.28 4.36875L0 3.8325C0.265258 3.21916 0.905517 2.74083 1.17077 2.1275C1.45802 1.46333 1.37026 0.664165 1.6575 0Z" sodipodi:nodetypes="ccccccc"/>
  <circle id="shape6" transform="matrix(0.516570623202604 0 0 0.516570623202604 3.14591512901887 1.93713987180236)" r="4.56" cx="4.56" cy="4.56" fill="#ffffff" fill-rule="evenodd" stroke="#001115" stroke-width="0.48" stroke-linecap="square" stroke-linejoin="bevel"/>
  <path id="shape7" transform="matrix(0.516570623202604 0 0 0.516570623202604 7.05312569247863 4.23071300649326)" fill="none" stroke="#001115" stroke-width="0.48" stroke-linecap="square" stroke-linejoin="bevel" d="M1.6575 0L4.785 1.6725L1.2075 2.43L2.28 4.36875L0 3.8325C0.265258 3.21916 0.905517 2.74083 1.17077 2.1275C1.45802 1.46333 1.37026 0.664165 1.6575 0Z" sodipodi:nodetypes="ccccccc"/>
 </g>
</svg>
