<?xml version="1.0" standalone="no"?>
<!DOCTYPE svg PUBLIC "-//W3C//DTD SVG 20010904//EN" "http://www.w3.org/TR/2001/REC-SVG-20010904/DTD/svg10.dtd">
<!-- Created using Krita: https://krita.org -->
<svg xmlns="http://www.w3.org/2000/svg" 
    xmlns:xlink="http://www.w3.org/1999/xlink"
    xmlns:krita="http://krita.org/namespaces/svg/krita"
    xmlns:sodipodi="http://sodipodi.sourceforge.net/DTD/sodipodi-0.dtd"
    width="144pt"
    height="144pt"
    viewBox="0 0 144 144">
<defs/>
<rect id="shape1" transform="matrix(4.14996999746354 0 0 4.14996999746354 7.74000129479095 7.09093223691549)" fill="#c13636" fill-rule="evenodd" stroke="#8c2b2b" stroke-width="1.4304" stroke-linecap="square" stroke-linejoin="bevel" width="30.9688979652791" height="31.2817045919642" rx="3.40786539476094" ry="3.40786539476094"/><rect id="shape0" transform="matrix(2.90031614036959 0 0 2.90031614036959 20.9823403704425 10.2232815176347)" fill="#ffffff" fill-rule="evenodd" stroke-opacity="0" stroke="#000000" stroke-width="0" stroke-linecap="square" stroke-linejoin="bevel" width="2.16" height="42.48"/><rect id="shape01" transform="matrix(2.90031614036959 0 0 2.90031614036959 37.0964957231848 10.1884786199473)" fill="#ffffff" fill-rule="evenodd" stroke-opacity="0" stroke="#000000" stroke-width="0" stroke-linecap="square" stroke-linejoin="bevel" width="2.16" height="42.48"/><rect id="shape02" transform="matrix(2.90031614036959 0 0 2.90031614036959 52.8034466784618 9.84392099811104)" fill="#ffffff" fill-rule="evenodd" stroke-opacity="0" stroke="#000000" stroke-width="0" stroke-linecap="square" stroke-linejoin="bevel" width="2.16" height="42.48"/><rect id="shape011" transform="matrix(2.90031614036959 0 0 2.90031614036959 67.729571134109 9.9831370562259)" fill="#ffffff" fill-rule="evenodd" stroke-opacity="0" stroke="#000000" stroke-width="0" stroke-linecap="square" stroke-linejoin="bevel" width="2.16" height="42.48"/><rect id="shape03" transform="matrix(2.90031614036959 0 0 2.90031614036959 84.9318704583398 10.0175928184096)" fill="#ffffff" fill-rule="evenodd" stroke-opacity="0" stroke="#000000" stroke-width="0" stroke-linecap="square" stroke-linejoin="bevel" width="2.16" height="42.48"/><rect id="shape012" transform="matrix(2.90031614036959 0 0 2.90031614036959 100.638821413616 10.2385968029317)" fill="#ffffff" fill-rule="evenodd" stroke-opacity="0" stroke="#000000" stroke-width="0" stroke-linecap="square" stroke-linejoin="bevel" width="2.16" height="42.48"/><rect id="shape0111" transform="matrix(2.90031614036959 0 0 2.90031614036959 116.79648150531 10.073279688392)" fill="#ffffff" fill-rule="evenodd" stroke-opacity="0" stroke="#000000" stroke-width="0" stroke-linecap="square" stroke-linejoin="bevel" width="2.16" height="42.48"/><g id="group0" transform="matrix(6.63413087490426 0 0 6.63413087490426 31.6413007176587 23.6227265087954)" fill="none">
  <circle id="shape3" transform="matrix(0.516570623202604 0 0 0.516570623202604 0 0)" r="10.56" cx="10.56" cy="10.56" fill="#ffffff" fill-rule="evenodd" stroke="#001115" stroke-width="0.48" stroke-linecap="square" stroke-linejoin="bevel"/>
  <path id="shape4" transform="matrix(0.516570623202604 0 0 0.516570623202604 3.44810890133324 5.53247098054241)" fill="#ffffff" fill-rule="evenodd" stroke="#001115" stroke-width="0.48" stroke-linecap="square" stroke-linejoin="bevel" d="M2.25 0.045L6.165 0L7.8525 9.6075C5.93675 10.093 3.60609 10.775 0 9.585Z" sodipodi:nodetypes="ccccc"/>
  <path id="shape5" transform="matrix(-0.141909510322007 -0.55253804634916 0.496695983108483 -0.157863977681015 5.19265772083898 4.67611838469433)" fill="#ffffff" fill-rule="evenodd" stroke="#001115" stroke-width="0.48" stroke-linecap="square" stroke-linejoin="bevel" d="M1.46495 0L4.48946 1.83995C4.48946 3.75995 5.60619 4.9382 5.60619 6.8582C4.2512 6.8582 1.355 5.26345 0 5.26345Z" sodipodi:nodetypes="ccccc"/>
  <path id="shape04" transform="matrix(0.141909510322008 -0.55253804634916 -0.496695983108483 -0.157863977681016 5.7449852480563 4.65603938354919)" fill="#ffffff" fill-rule="evenodd" stroke="#001115" stroke-width="0.48" stroke-linecap="square" stroke-linejoin="bevel" d="M1.46495 0L4.48946 1.83995C4.48946 3.75995 5.60619 4.9382 5.60619 6.8582C4.2512 6.8582 1.355 5.26345 0 5.26345Z" sodipodi:nodetypes="ccccc"/>
  <path id="shape05" transform="matrix(-0.516570623202604 0 0 0.516570623202604 4.06622548104989 4.15709408913931)" fill="none" stroke="#001115" stroke-width="0.48" stroke-linecap="square" stroke-linejoin="bevel" d="M1.6575 0L4.785 1.6725L1.2075 2.43L2.28 4.36875L0 3.8325C0.265258 3.21916 0.905517 2.74083 1.17077 2.1275C1.45802 1.46333 1.37026 0.664165 1.6575 0Z" sodipodi:nodetypes="ccccccc"/>
  <circle id="shape6" transform="matrix(0.516570623202604 0 0 0.516570623202604 3.14591512901886 1.93713987180236)" r="4.56" cx="4.56" cy="4.56" fill="#ffffff" fill-rule="evenodd" stroke="#001115" stroke-width="0.48" stroke-linecap="square" stroke-linejoin="bevel"/>
  <path id="shape7" transform="matrix(0.516570623202604 0 0 0.516570623202604 7.05312569247863 4.23071300649326)" fill="none" stroke="#001115" stroke-width="0.48" stroke-linecap="square" stroke-linejoin="bevel" d="M1.6575 0L4.785 1.6725L1.2075 2.43L2.28 4.36875L0 3.8325C0.265258 3.21916 0.905517 2.74083 1.17077 2.1275C1.45802 1.46333 1.37026 0.664165 1.6575 0Z" sodipodi:nodetypes="ccccccc"/>
 </g>
</svg>
